<?xml version="1.0" encoding="UTF-8" standalone="no"?>
<svg
   xmlns:dc="http://purl.org/dc/elements/1.1/"
   xmlns:cc="http://creativecommons.org/ns#"
   xmlns:rdf="http://www.w3.org/1999/02/22-rdf-syntax-ns#"
   xmlns:svg="http://www.w3.org/2000/svg"
   xmlns="http://www.w3.org/2000/svg"
   xmlns:xlink="http://www.w3.org/1999/xlink"
   xmlns:sodipodi="http://sodipodi.sourceforge.net/DTD/sodipodi-0.dtd"
   xmlns:inkscape="http://www.inkscape.org/namespaces/inkscape"
   width="210mm"
   height="297mm"
   viewBox="0 0 210 297"
   version="1.1"
   id="svg8"
   sodipodi:docname="obelisk.svg"
   inkscape:version="1.0.1 (3bc2e813f5, 2020-09-07)">
  <defs
     id="defs2">
    <linearGradient
       inkscape:collect="always"
       id="linearGradient988">
      <stop
         style="stop-color:#ffffff;stop-opacity:1"
         offset="0"
         id="stop984" />
      <stop
         style="stop-color:#7cc2ff;stop-opacity:1"
         offset="1"
         id="stop986" />
    </linearGradient>
    <linearGradient
       inkscape:collect="always"
       id="linearGradient953">
      <stop
         style="stop-color:#ffffff;stop-opacity:1"
         offset="0"
         id="stop949" />
      <stop
         style="stop-color:#7cc29c;stop-opacity:1"
         offset="1"
         id="stop951" />
    </linearGradient>
    <linearGradient
       inkscape:collect="always"
       id="linearGradient932">
      <stop
         style="stop-color:#ffffff;stop-opacity:1;"
         offset="0"
         id="stop928" />
      <stop
         style="stop-color:#3b596d;stop-opacity:1"
         offset="1"
         id="stop930" />
    </linearGradient>
    <linearGradient
       inkscape:collect="always"
       id="linearGradient886">
      <stop
         style="stop-color:#354255;stop-opacity:1"
         offset="0"
         id="stop882" />
      <stop
         style="stop-color:#597182;stop-opacity:1"
         offset="1"
         id="stop884" />
    </linearGradient>
    <linearGradient
       inkscape:collect="always"
       xlink:href="#linearGradient886"
       id="linearGradient874"
       x1="50.527428"
       y1="184.31671"
       x2="101.42878"
       y2="185.08415"
       gradientUnits="userSpaceOnUse" />
    <linearGradient
       inkscape:collect="always"
       xlink:href="#linearGradient886"
       id="linearGradient874-7"
       x1="51.283379"
       y1="186.2066"
       x2="101.42878"
       y2="185.08415"
       gradientUnits="userSpaceOnUse"
       gradientTransform="matrix(-1,0,0,1,207.13498,0.72527653)" />
    <radialGradient
       inkscape:collect="always"
       xlink:href="#linearGradient932"
       id="radialGradient934"
       cx="103.98251"
       cy="102.07497"
       fx="103.98251"
       fy="102.07497"
       r="19.943583"
       gradientTransform="matrix(0.9719337,0.0125511,-0.03316064,2.5678995,6.3119052,-157.21412)"
       gradientUnits="userSpaceOnUse" />
    <linearGradient
       inkscape:collect="always"
       xlink:href="#linearGradient953"
       id="linearGradient955"
       x1="103.23286"
       y1="127.2871"
       x2="102.99279"
       y2="97.633705"
       gradientUnits="userSpaceOnUse" />
    <linearGradient
       inkscape:collect="always"
       xlink:href="#linearGradient988"
       id="linearGradient990"
       gradientUnits="userSpaceOnUse"
       x1="102.5146"
       y1="-15.835719"
       x2="102.76231"
       y2="61.799107" />
  </defs>
  <sodipodi:namedview
     id="base"
     pagecolor="#ffffff"
     bordercolor="#666666"
     borderopacity="1.0"
     inkscape:pageopacity="0.0"
     inkscape:pageshadow="2"
     inkscape:zoom="0.81775107"
     inkscape:cx="247.36449"
     inkscape:cy="603.98"
     inkscape:document-units="mm"
     inkscape:current-layer="layer1"
     inkscape:document-rotation="0"
     showgrid="false"
     inkscape:snap-object-midpoints="false"
     inkscape:snap-center="false"
     inkscape:snap-intersection-paths="false"
     inkscape:object-paths="true"
     inkscape:window-width="1920"
     inkscape:window-height="1137"
     inkscape:window-x="-8"
     inkscape:window-y="-8"
     inkscape:window-maximized="1" />
  <metadata
     id="metadata5">
    <rdf:RDF>
      <cc:Work
         rdf:about="">
        <dc:format>image/svg+xml</dc:format>
        <dc:type
           rdf:resource="http://purl.org/dc/dcmitype/StillImage" />
      </cc:Work>
    </rdf:RDF>
  </metadata>
  <g
     inkscape:label="außen_kontur"
     inkscape:groupmode="layer"
     id="layer1"
     style="display:inline">
    <path
       id="path24"
       style="display:inline;fill:#495869;fill-opacity:1;stroke:none;stroke-width:0.755906;stroke-linecap:butt;stroke-linejoin:miter;stroke-miterlimit:4;stroke-dasharray:none;stroke-opacity:1"
       d="m 394.28516,42.857422 1.78711,87.499998 -15.17969,0.71485 -1.25,-87.32227 -3.75,0.177734 -5.53516,12.857422 -3.92969,72.322264 -22.49804,46.07031 -6.42969,76.25 -26.42773,26.96485 0.17773,96.96484 -8.57227,8.21485 -0.35546,254.28515 h 2.5 v 14.10742 l 6.25,0.17774 1.82226,60.20508 -3.2832,-0.18946 -0.125,16.41407 3.3457,0.12695 -0.0644,21.33984 -2.65039,-0.0644 -0.0645,8.14453 2.80469,0.0957 0.17774,5.53516 -6.60743,15.35742 2.5,120.10742 23.39258,23.39258 L 332.5,933.5 l 13.92773,18.57227 13.75,0.71289 L 360,933.67773 l 5,0.17969 -0.17773,27.85742 8.75,12.14258 8.96289,0.17774 -0.39258,-19.64258 -3.39258,-0.17774 -0.35742,-88.89257 3.75,-18.92969 0.17773,-14.46485 0.35742,-20.14257 -10.89257,-12.85743 V 777.5 l 8.03515,10.89258 0.35742,-13.03516 2.67774,-0.17773 0.17969,-13.75 h -2.67774 v -39.64453 l -7.14453,-9.10547 -0.17773,-34.28711 6.48046,0.0332 -0.23046,-64.85351 -3.76172,-4.32422 0.94531,-85.4668 24.95898,0.86133 2.92383,82.60547 -0.76367,9.06445 -1.24219,62.23047 5.68946,0.0293 0.35742,35.53515 -8.21485,21.60742 0.17969,52.85743 9.82031,-10.35743 1.25,24.28516 L 400,815.53516 l 1.07031,30.14257 3.75,20.89454 1.07227,32.82031 0.89258,57.32226 -5.17774,0.53516 0.53516,13.75 5.71484,6.42773 10.53516,-0.89257 7.14258,-12.67774 0.35742,-6.96484 h 17.67773 l 10,-15.89258 0.71485,-11.25 9.28515,-2.67773 -0.17773,-5.89454 18.39258,-13.92773 -2.5,-127.42773 -3.75,-15 -1.42774,-30.71485 -1.42969,-47.5 2.5,-42.67969 6.60743,-8.21289 -4.10743,-267.14257 -9.28515,-2.85743 -0.17774,-97.14257 -30,-25 -6.96484,-75.35743 -22.5,-41.78711 -5.89258,-75.355464 z m 28.92968,458.570308 10.35743,1.07227 2.5,95.71484 L 425,597.14258 Z m -80,3.57227 11.42774,0.71484 1.07226,88.92774 -11.42968,6.07226 z"
       transform="scale(0.26458333)" />
  </g>
  <g
     inkscape:groupmode="layer"
     id="layer4"
     inkscape:label="innen_elemente"
     style="display:inline">
    <path
       style="fill:url(#linearGradient874);fill-opacity:1;fill-rule:nonzero;stroke:none;stroke-width:0.264583px;stroke-linecap:butt;stroke-linejoin:miter;stroke-opacity:1"
       d="m 100.35268,162.34077 -8.031997,7.46503 3.023809,62.72515 4.835738,3.65745 -0.064,-7.23873 0.99218,-5.00819 0.1418,-9.15647 -2.882061,-3.40179 v -5.66964 l 2.126111,2.88207 0.0945,-3.44904 0.70871,-0.0472 0.0473,-3.63802 h -0.70871 v -10.48884 l -1.889881,-2.4096 -0.0472,-9.07143 1.832291,0.009 z"
       id="path858"
       sodipodi:nodetypes="ccccccccccccccccccc"
       inkscape:label="grey_left"
       inkscape:export-xdpi="16.047754"
       inkscape:export-ydpi="16.047754" />
    <path
       style="display:inline;fill:url(#linearGradient874-7);fill-opacity:1;fill-rule:nonzero;stroke:none;stroke-width:0.264583px;stroke-linecap:butt;stroke-linejoin:miter;stroke-opacity:1"
       d="m 106.78234,163.06626 8.03199,7.46503 -3.02381,62.72515 -4.40856,3.38997 -0.27302,-7.36604 -0.99218,-5.5279 -0.28347,-7.97528 3.02381,-3.44904 -0.33073,-6.42559 -2.59858,2.74032 -0.0473,-13.98511 2.17336,-5.71689 -0.0945,-9.40216 -1.52183,-0.008 z"
       id="path858-0"
       sodipodi:nodetypes="ccccccccccccccc"
       inkscape:label="grey_right"
       inkscape:export-xdpi="16.047754"
       inkscape:export-ydpi="16.047754" />
    <path
       style="display:inline;opacity:1;fill:url(#radialGradient934);fill-opacity:1;stroke:none;stroke-width:0.264583px;stroke-linecap:butt;stroke-linejoin:miter;stroke-opacity:1"
       d="m 102.71503,57.074405 -18.993305,55.279015 17.900675,26.29982 3.50108,0.12094 18.19125,-28.68862 z"
       id="path926"
       inkscape:label="raute1"
       inkscape:export-xdpi="16.047754"
       inkscape:export-ydpi="16.047754" />
    <path
       style="display:inline;fill:#f2f3f4;fill-opacity:1;stroke:none;stroke-width:0.264583px;stroke-linecap:butt;stroke-linejoin:miter;stroke-opacity:1"
       d="m 103.09301,68.319197 -13.607147,42.049853 12.378717,18.80431 3.02381,0.28349 12.47322,-19.84376 z"
       id="path941"
       inkscape:label="raute2_white"
       inkscape:export-xdpi="16.047754"
       inkscape:export-ydpi="16.047754" />
    <path
       style="display:inline;fill:#acc5c7;fill-opacity:0.996154;stroke:none;stroke-width:0.264583px;stroke-linecap:butt;stroke-linejoin:miter;stroke-opacity:1"
       d="m 102.99851,77.012648 -11.244792,32.978422 10.643922,16.22696 1.80406,0.0668 10.7576,-17.00502 z"
       id="path943"
       inkscape:label="raute3_grey"
       inkscape:export-xdpi="16.047754"
       inkscape:export-ydpi="16.047754" />
    <path
       style="display:inline;fill:#5e7c86;fill-opacity:1;stroke:none;stroke-width:0.264583px;stroke-linecap:butt;stroke-linejoin:miter;stroke-opacity:1"
       d="m 103.16604,86.595327 -7.550369,21.448383 7.416729,10.49032 7.55037,-11.1585 z"
       id="path945"
       inkscape:label="raute4_grey_dark"
       inkscape:export-xdpi="16.047754"
       inkscape:export-ydpi="16.047754" />
    <path
       style="display:inline;fill:url(#linearGradient955);fill-opacity:1;stroke:none;stroke-width:0.264583px;stroke-linecap:butt;stroke-linejoin:miter;stroke-opacity:1"
       d="m 98.709553,112.41974 3.253767,-7.18236 0.0691,-15.42174 1.13363,-3.220315 1.20867,3.386441 -0.47368,15.456064 2.97359,7.41788 -3.84222,5.67832 z"
       id="path947"
       inkscape:label="beam_inner"
       inkscape:export-xdpi="16.047754"
       inkscape:export-ydpi="16.047754" />
    <path
       style="display:inline;fill:#31a25f;fill-opacity:1;stroke:none;stroke-width:0.264583px;stroke-linecap:butt;stroke-linejoin:miter;stroke-opacity:1"
       d="m 102.03242,89.81564 -3.322867,22.6041 3.253767,-7.18236 z"
       id="path957"
       inkscape:label="inner_green_left"
       inkscape:export-xdpi="16.047754"
       inkscape:export-ydpi="16.047754" />
    <path
       style="display:inline;fill:#31a25f;fill-opacity:1;stroke:none;stroke-width:0.264583px;stroke-linecap:butt;stroke-linejoin:miter;stroke-opacity:1"
       d="m 104.37472,89.981766 2.49991,22.873944 -2.97359,-7.41788 z"
       id="path957-1"
       inkscape:label="inner_green_right"
       sodipodi:nodetypes="cccc"
       inkscape:export-xdpi="16.047754"
       inkscape:export-ydpi="16.047754" />
    <path
       style="fill:url(#linearGradient990);fill-opacity:1;fill-rule:nonzero;stroke:none;stroke-width:0.264583px;stroke-linecap:butt;stroke-linejoin:miter;stroke-opacity:1"
       d="m 101.08985,61.804412 0.0717,-55.9912998 h 2.40542 l 0.91108,55.7981698 -1.76299,-4.536877 z"
       id="path974"
       inkscape:label="beam_top"
       inkscape:export-xdpi="16.047754"
       inkscape:export-ydpi="16.047754" />
  </g>
</svg>
